<?xml version="1.0" encoding="UTF-8" standalone="no"?>
<!-- Created with Inkscape (http://www.inkscape.org/) -->

<svg
   width="62.585804mm"
   height="73.477989mm"
   viewBox="0 0 62.585804 73.477989"
   version="1.1"
   id="svg1397"
   inkscape:version="1.1.1 (3bf5ae0d25, 2021-09-20)"
   sodipodi:docname="favicon.svg"
   xmlns:inkscape="http://www.inkscape.org/namespaces/inkscape"
   xmlns:sodipodi="http://sodipodi.sourceforge.net/DTD/sodipodi-0.dtd"
   xmlns="http://www.w3.org/2000/svg"
   xmlns:svg="http://www.w3.org/2000/svg">
  <sodipodi:namedview
     id="namedview1399"
     pagecolor="#c2ffc7"
     bordercolor="#666666"
     borderopacity="1.0"
     inkscape:pageshadow="2"
     inkscape:pageopacity="0"
     inkscape:pagecheckerboard="0"
     inkscape:document-units="mm"
     showgrid="false"
     fit-margin-top="0"
     fit-margin-left="0"
     fit-margin-right="0"
     fit-margin-bottom="0"
     inkscape:zoom="1.877186"
     inkscape:cx="58.331994"
     inkscape:cy="135.30892"
     inkscape:window-width="1920"
     inkscape:window-height="1112"
     inkscape:window-x="-8"
     inkscape:window-y="-8"
     inkscape:window-maximized="1"
     inkscape:current-layer="layer1" />
  <defs
     id="defs1394" />
  <g
     inkscape:label="Layer 1"
     inkscape:groupmode="layer"
     id="layer1"
     transform="translate(-93.985213,-74.185964)">
    <path
       d="m 109.64723,97.585738 c 2.06459,5.076482 3.39182,9.242582 1.79387,10.596972 -2.95392,2.50319 -12.023302,3.19087 -13.667572,5.45618 -1.87648,2.58715 -4.70896,32.78567 -3.49565,33.99047 0.65875,0.66452 6.898632,-8.40651 10.295842,-13.27112 4.54492,-6.50602 7.73087,-11.58958 14.74656,-12.21245 2.88879,-0.25638 4.75846,-0.99353 8.83536,-1.74081 3.30475,-0.60594 10.59612,7.79378 16.01684,12.77138 0.1552,0.14556 0.40215,0.12574 0.53964,-0.0363 l 2.86125,-3.37203 2.86134,-3.37213 c 0.13863,-0.16337 0.11508,-0.40704 -0.0521,-0.53835 -5.79366,-4.53808 -15.26812,-10.365 -15.20843,-13.72404 0.0736,-4.14418 0.49636,-6.1087 0.27902,-9.00068 -0.52746,-7.023852 3.97003,-10.994572 9.64911,-16.538202 4.24527,-4.14455 12.17649,-11.771197 11.41797,-12.318916 -1.38311,-1.004681 -30.72139,6.709331 -32.96797,8.982426 -1.96811,1.99097 -1.16944,11.05191 -3.15861,14.37372 -1.07659,1.79637 -5.40278,1.16582 -10.74753,-0.0449"
       style="fill:#ffffff;fill-opacity:1;fill-rule:nonzero;stroke:none;stroke-width:0.0309428"
       id="path2234" />
  </g>
</svg>
