<?xml version="1.0" encoding="UTF-8" standalone="no"?>
<!-- Generator: Adobe Illustrator 27.2.0, SVG Export Plug-In . SVG Version: 6.00 Build 0)  -->

<svg
   version="1.1"
   id="Layer_1"
   x="0px"
   y="0px"
   viewBox="0 0 564.79515 1069.587"
   enable-background="new 0 0 3000 3000"
   xml:space="preserve"
   sodipodi:docname="haukka.svg"
   width="562.79999"
   height="1065.8079"
   inkscape:version="1.4 (e7c3feb1, 2024-10-09)"
   xmlns:inkscape="http://www.inkscape.org/namespaces/inkscape"
   xmlns:sodipodi="http://sodipodi.sourceforge.net/DTD/sodipodi-0.dtd"
   xmlns:xlink="http://www.w3.org/1999/xlink"
   xmlns="http://www.w3.org/2000/svg"
   xmlns:svg="http://www.w3.org/2000/svg"><defs
   id="defs31">
	
	
	

		
	
		
	
		
	
			<defs
   id="defs4">
				<rect
   id="SVGID_00000044145567291017807560000017741770235080368795_"
   x="600"
   y="421.5"
   width="1800"
   height="1800" />
			</defs>
			
			
		
			<defs
   id="defs11">
				<rect
   id="SVGID_00000159433012352995876440000007041550792142528136_"
   x="600"
   y="421.5"
   width="1800"
   height="1800" />
			</defs>
			
			
		
			<defs
   id="defs1">
				<rect
   id="SVGID_1_"
   x="600"
   y="421.5"
   width="1800"
   height="1800" />
			</defs>
			
			
		
				<defs
   id="defs2">
					<rect
   id="SVGID_00000094590510777002169390000005415981668358291131_"
   x="600"
   y="421.5"
   width="1800"
   height="1800" />
				</defs>
				<clipPath
   id="SVGID_00000159441273018036660570000002780626068725985431_">
					<use
   xlink:href="#SVGID_00000094590510777002169390000005415981668358291131_"
   overflow="visible"
   id="use2" />
				</clipPath>
			
				<defs
   id="defs12">
					<rect
   id="SVGID_00000106837019724457514940000012666058849448734635_"
   x="600"
   y="421.5"
   width="1800"
   height="1800" />
				</defs>
				<clipPath
   id="SVGID_00000037689629124936897760000009166697535494649998_">
					<use
   xlink:href="#SVGID_00000106837019724457514940000012666058849448734635_"
   overflow="visible"
   id="use12" />
				</clipPath>
			
				<defs
   id="defs5">
					<rect
   id="SVGID_00000102523993668273473930000013709737971916930722_"
   x="600"
   y="421.5"
   width="1800"
   height="1800" />
				</defs>
				<clipPath
   id="SVGID_00000067211150518504055560000001041461315315515807_">
					<use
   xlink:href="#SVGID_00000102523993668273473930000013709737971916930722_"
   overflow="visible"
   id="use5" />
				</clipPath>
				
				
				
				
				
				
					
				
			</defs><sodipodi:namedview
   id="namedview31"
   pagecolor="#ff7dff"
   bordercolor="#000000"
   borderopacity="0.25"
   inkscape:showpageshadow="2"
   inkscape:pageopacity="0.0"
   inkscape:pagecheckerboard="0"
   inkscape:deskcolor="#d1d1d1"
   inkscape:zoom="0.43479719"
   inkscape:cx="251.84156"
   inkscape:cy="650.87818"
   inkscape:window-width="1672"
   inkscape:window-height="1051"
   inkscape:window-x="62"
   inkscape:window-y="38"
   inkscape:window-maximized="0"
   inkscape:current-layer="Layer_1" />

				
			<path
   clip-path="url(#SVGID_00000067211150518504055560000001041461315315515807_)"
   fill="#ffffff"
   d="m 1151.1,1321.4 c -53.8,28.1 -94.9,53.8 -91.1,76.7 7,42.3 78.7,113.1 76.4,144.1 -2.7,35.3 -195.2,310.7 -214.1,312.2 -10.3,0.8 2,-120.5 8.1,-185.9 8.2,-87.5 17.8,-153.3 -37,-208.9 -22.6,-22.9 -33.1,-42.5 -62.2,-78 -23.6,-28.8 -145.4,-10.1 -226.9,-6.9 -2.4,0.1 -4.3,-1.8 -4.3,-4.2 v -49 -49 c 0,-2.4 1.9,-4.3 4.3,-4.2 81.5,3.2 203.3,21.9 226.9,-6.9 29.1,-35.5 39.6,-55.2 62.2,-78 54.8,-55.6 45.3,-121.3 37,-208.9 -6.2,-65.4 -18.5,-186.7 -8.1,-185.9 18.9,1.5 211.4,276.9 214.1,312.2 2.3,30.9 -69.3,101.8 -76.4,144.1 -3.8,22.7 37.3,48.4 91.1,76.5"
   id="path8"
   transform="translate(-596,-788.59606)" /><path
   clip-path="url(#SVGID_00000067211150518504055560000001041461315315515807_)"
   fill="none"
   stroke="#000000"
   stroke-width="0.8568"
   stroke-miterlimit="10"
   d="M 1261.8,1559.2"
   id="path9"
   transform="translate(-600,-788.59606)" />
				
			
				
			

<g
   id="g26"
   transform="translate(-600,-788.59606)">
</g>
<g
   id="g27"
   transform="translate(-600,-788.59606)">
</g>
<g
   id="g28"
   transform="translate(-600,-788.59606)">
</g>
<g
   id="g29"
   transform="translate(-600,-788.59606)">
</g>
<g
   id="g30"
   transform="translate(-600,-788.59606)">
</g>
<g
   id="g31"
   transform="translate(-600,-788.59606)">
</g>
</svg>
