<?xml version="1.0" encoding="UTF-8" standalone="no"?>
<!-- Created with Inkscape (http://www.inkscape.org/) -->

<svg
   width="9.0562601mm"
   height="10.79933mm"
   viewBox="0 0 9.0562601 10.79933"
   version="1.1"
   id="svg1015"
   inkscape:version="1.1.1 (3bf5ae0d25, 2021-09-20)"
   sodipodi:docname="kuusi-icon.svg"
   xmlns:inkscape="http://www.inkscape.org/namespaces/inkscape"
   xmlns:sodipodi="http://sodipodi.sourceforge.net/DTD/sodipodi-0.dtd"
   xmlns="http://www.w3.org/2000/svg"
   xmlns:svg="http://www.w3.org/2000/svg">
  <sodipodi:namedview
     id="namedview1017"
     pagecolor="#93ffaa"
     bordercolor="#666666"
     borderopacity="1.0"
     inkscape:pageshadow="2"
     inkscape:pageopacity="0"
     inkscape:pagecheckerboard="0"
     inkscape:document-units="mm"
     showgrid="false"
     fit-margin-top="0"
     fit-margin-left="0"
     fit-margin-right="0"
     fit-margin-bottom="0"
     inkscape:zoom="15.017488"
     inkscape:cx="13.883814"
     inkscape:cy="24.571353"
     inkscape:window-width="1920"
     inkscape:window-height="1112"
     inkscape:window-x="-8"
     inkscape:window-y="-8"
     inkscape:window-maximized="1"
     inkscape:current-layer="layer1" />
  <defs
     id="defs1012" />
  <g
     inkscape:label="Layer 1"
     inkscape:groupmode="layer"
     id="layer1"
     transform="translate(-133.80609,-158.44866)">
    <path
       d="m 138.073,169.19079 0.0255,-1.34552 0.0255,-1.34552 -0.38495,0.26123 c -0.80599,0.54696 -2.28082,0.74829 -3.06902,0.41896 -0.32818,-0.13712 -0.36113,-0.18145 -0.2418,-0.32523 0.076,-0.0916 0.33184,-0.26476 0.56857,-0.38489 0.23673,-0.12013 0.64304,-0.36409 0.90291,-0.54214 l 0.47249,-0.32372 -0.3402,-0.0882 c -0.56711,-0.14695 -0.44271,-0.42446 0.37415,-0.83464 1.06321,-0.53389 1.91861,-1.75177 1.67545,-2.38542 -0.0545,-0.14194 -0.12735,-0.095 -0.37471,0.24136 -0.29043,0.39493 -1.07082,0.88973 -1.39168,0.88239 -0.23281,-0.005 -0.54947,-0.29031 -0.49039,-0.44134 0.0296,-0.0755 0.28589,-0.21857 0.56964,-0.3178 0.58287,-0.20385 1.36566,-0.90933 1.58686,-1.43013 0.0795,-0.18731 0.14313,-0.49687 0.14129,-0.68792 l -0.003,-0.34736 -0.23434,0.3175 c -0.37129,0.50305 -0.70271,0.77445 -1.10974,0.90878 -0.33079,0.10917 -0.39536,0.10067 -0.51892,-0.0683 -0.21271,-0.2909 -0.18207,-0.34389 0.34108,-0.5898 0.66195,-0.31115 1.38737,-1.21223 1.48156,-1.8403 0.055,-0.36696 0.11577,-0.47412 0.26873,-0.47412 0.12561,0 0.21766,0.0964 0.25257,0.26459 0.0302,0.14552 0.0777,0.3757 0.10544,0.51152 0.073,0.35673 0.82394,1.16887 1.38474,1.49752 0.57107,0.33467 0.60199,0.61871 0.0729,0.66989 -0.40493,0.0392 -0.61021,-0.0896 -1.1247,-0.70539 -0.405,-0.48476 -0.46154,-0.43244 -0.31648,0.29285 0.097,0.48508 0.90252,1.32746 1.57235,1.64435 0.31401,0.14854 0.59882,0.31523 0.63292,0.3704 0.0926,0.1498 -0.30162,0.32261 -0.73593,0.32261 -0.32621,0 -0.47478,-0.0925 -1.00825,-0.62761 -0.61452,-0.61644 -0.62456,-0.62162 -0.56383,-0.29105 0.18673,1.01632 1.05685,2.09297 1.97244,2.44063 0.53035,0.20137 0.59037,0.36389 0.19959,0.54041 -0.1272,0.0575 -0.23128,0.13926 -0.23128,0.18178 0,0.0907 0.95874,0.81372 1.45521,1.09742 0.18918,0.10811 0.34396,0.25435 0.34396,0.32498 0,0.20633 -1.11404,0.38513 -1.88508,0.30256 -0.80798,-0.0865 -1.1287,-0.20643 -1.53138,-0.5725 l -0.29438,-0.26761 0.0298,1.37237 0.0298,1.37237 m -1.81756,-2.71536 c 0.22296,-0.0559 0.57898,-0.26068 0.79116,-0.45513 0.36866,-0.33785 0.38759,-0.38925 0.4264,-1.1578 0.0274,-0.54285 0.002,-0.80425 -0.0768,-0.80425 -0.0646,0 -0.1174,0.0446 -0.1174,0.0991 0,0.0841 -0.68778,0.93523 -1.74804,2.16315 -0.14454,0.16739 -0.2628,0.32308 -0.2628,0.34598 0,0.0421 0.25023,-0.006 0.98747,-0.19106 z m 3.41351,-0.53864 c -0.33033,-0.3638 -0.82465,-0.94117 -1.0985,-1.28305 l -0.49789,-0.6216 -0.0313,0.76505 c -0.0233,0.56852 0.0128,0.83235 0.14037,1.02708 0.22413,0.34206 1.15634,0.77163 1.67736,0.77295 l 0.41058,0.001 -0.6006,-0.66145 z"
       style="fill:#f96815;fill-opacity:1;stroke-width:0.0280016"
       id="path1010"
       sodipodi:nodetypes="ccccccsccccccccccccsccccsccscccccsccccscsccccccccsscsccccccccccc" />
  </g>
</svg>
