<?xml version="1.0" encoding="utf-8"?>
<!-- Generator: Adobe Illustrator 27.2.0, SVG Export Plug-In . SVG Version: 6.00 Build 0)  -->
<svg version="1.1" id="Layer_1" xmlns="http://www.w3.org/2000/svg" xmlns:xlink="http://www.w3.org/1999/xlink" x="0px" y="0px"
	 viewBox="0 0 3000 3000" enable-background="new 0 0 3000 3000" xml:space="preserve">
<g>
	<g>
		<g>
			<defs>
				<rect id="SVGID_1_" x="600" y="421.5" width="1800" height="1800"/>
			</defs>
			<clipPath id="SVGID_00000093154009556493443720000013293260090133535640_">
				<use xlink:href="#SVGID_1_"  overflow="visible"/>
			</clipPath>
			<g clip-path="url(#SVGID_00000093154009556493443720000013293260090133535640_)">
				<defs>
					<rect id="SVGID_00000094590510777002169390000005415981668358291131_" x="600" y="421.5" width="1800" height="1800"/>
				</defs>
				<clipPath id="SVGID_00000159441273018036660570000002780626068725985431_">
					<use xlink:href="#SVGID_00000094590510777002169390000005415981668358291131_"  overflow="visible"/>
				</clipPath>
			</g>
		</g>
	</g>
	<g>
		<g>
			<defs>
				<rect id="SVGID_00000044145567291017807560000017741770235080368795_" x="600" y="421.5" width="1800" height="1800"/>
			</defs>
			<clipPath id="SVGID_00000168816482141652600410000001115892254707913600_">
				<use xlink:href="#SVGID_00000044145567291017807560000017741770235080368795_"  overflow="visible"/>
			</clipPath>
			<g clip-path="url(#SVGID_00000168816482141652600410000001115892254707913600_)">
				<defs>
					<rect id="SVGID_00000102523993668273473930000013709737971916930722_" x="600" y="421.5" width="1800" height="1800"/>
				</defs>
				<clipPath id="SVGID_00000067211150518504055560000001041461315315515807_">
					<use xlink:href="#SVGID_00000102523993668273473930000013709737971916930722_"  overflow="visible"/>
				</clipPath>
				<path clip-path="url(#SVGID_00000067211150518504055560000001041461315315515807_)" fill="#FFFFFF" d="M1500,972.5
					c28.1-53.8,53.8-94.9,76.7-91.1c42.3,7,113.1,78.7,144.1,76.4c35.3-2.7,310.7-195.2,312.2-214.1c0.8-10.3-120.5,2-185.9,8.1
					c-87.5,8.2-153.3,17.8-208.9-37c-22.9-22.6-42.5-33.1-78-62.2c-28.8-23.6-10.1-145.4-6.9-226.9c0.1-2.4-1.8-4.3-4.2-4.3h-49h-49
					c-2.4,0-4.3,1.9-4.2,4.3c3.2,81.5,21.9,203.3-6.9,226.9c-35.5,29.1-55.2,39.6-78,62.2c-55.6,54.8-121.3,45.3-208.9,37
					c-65.5-6.2-186.7-18.5-185.9-8.1c1.5,18.9,276.9,211.4,312.2,214.1c30.9,2.3,101.7-69.3,144.1-76.4
					C1446.2,877.6,1471.9,918.7,1500,972.5"/>
				<path clip-path="url(#SVGID_00000067211150518504055560000001041461315315515807_)" fill="#FFFFFF" d="M1500,1670.3
					c-28.1,53.8-53.8,94.9-76.7,91.1c-42.3-7-113.1-78.7-144.1-76.4c-35.3,2.7-310.7,195.2-312.2,214.1c-0.8,10.3,120.5-2,185.9-8.1
					c87.5-8.2,153.3-17.8,208.9,37c22.9,22.6,42.5,33.1,78,62.2c28.8,23.6,10.1,145.4,6.9,226.9c-0.1,2.4,1.8,4.3,4.2,4.3h49h49
					c2.4,0,4.3-1.9,4.2-4.3c-3.2-81.5-21.9-203.3,6.9-226.9c35.5-29.1,55.2-39.6,78-62.2c55.6-54.8,121.3-45.3,208.9-37
					c65.5,6.2,186.7,18.5,185.9,8.1c-1.5-18.9-276.9-211.4-312.2-214.1c-30.9-2.4-101.8,69.3-144.1,76.4
					C1553.8,1765.2,1528.1,1724.1,1500,1670.3"/>
				<path clip-path="url(#SVGID_00000067211150518504055560000001041461315315515807_)" fill="#FFFFFF" d="M1848.9,1321.4
					c53.8,28.1,94.9,53.8,91.1,76.7c-7,42.3-78.7,113.1-76.4,144.1c2.7,35.3,195.2,310.7,214.1,312.2c10.3,0.8-2-120.5-8.1-185.9
					c-8.2-87.5-17.8-153.3,37-208.9c22.6-22.9,33.1-42.5,62.2-78c23.6-28.8,145.4-10.1,226.9-6.9c2.4,0.1,4.3-1.8,4.3-4.2v-49v-49
					c0-2.4-1.9-4.3-4.3-4.2c-81.5,3.2-203.3,21.9-226.9-6.9c-29.1-35.5-39.6-55.2-62.2-78c-54.8-55.6-45.3-121.3-37-208.9
					c6.2-65.4,18.5-186.7,8.1-185.9c-18.9,1.5-211.4,276.9-214.1,312.2c-2.3,30.9,69.3,101.8,76.4,144.1
					C1943.8,1267.6,1902.7,1293.3,1848.9,1321.4"/>
				<path clip-path="url(#SVGID_00000067211150518504055560000001041461315315515807_)" fill="#FFFFFF" d="M1151.1,1321.4
					c-53.8,28.1-94.9,53.8-91.1,76.7c7,42.3,78.7,113.1,76.4,144.1c-2.7,35.3-195.2,310.7-214.1,312.2c-10.3,0.8,2-120.5,8.1-185.9
					c8.2-87.5,17.8-153.3-37-208.9c-22.6-22.9-33.1-42.5-62.2-78c-23.6-28.8-145.4-10.1-226.9-6.9c-2.4,0.1-4.3-1.8-4.3-4.2v-49v-49
					c0-2.4,1.9-4.3,4.3-4.2c81.5,3.2,203.3,21.9,226.9-6.9c29.1-35.5,39.6-55.2,62.2-78c54.8-55.6,45.3-121.3,37-208.9
					c-6.2-65.4-18.5-186.7-8.1-185.9c18.9,1.5,211.4,276.9,214.1,312.2c2.3,30.9-69.3,101.8-76.4,144.1
					C1056.2,1267.6,1097.3,1293.3,1151.1,1321.4"/>
				<polyline clip-path="url(#SVGID_00000067211150518504055560000001041461315315515807_)" fill="#F26922" points="1737.8,1083.6 
					1737.8,1559.2 1262.2,1559.2 				"/>
				
					<path clip-path="url(#SVGID_00000067211150518504055560000001041461315315515807_)" fill="none" stroke="#000000" stroke-width="0.8568" stroke-miterlimit="10" d="
					M1261.8,1559.2"/>
				<polyline clip-path="url(#SVGID_00000067211150518504055560000001041461315315515807_)" fill="#FFFFFF" points="1262.2,1559.2 
					1262.2,1083.6 1737.8,1083.6 				"/>
			</g>
		</g>
	</g>
	<g>
		<g>
			<defs>
				<rect id="SVGID_00000159433012352995876440000007041550792142528136_" x="600" y="421.5" width="1800" height="1800"/>
			</defs>
			<clipPath id="SVGID_00000098200056625486750930000014386648022515516824_">
				<use xlink:href="#SVGID_00000159433012352995876440000007041550792142528136_"  overflow="visible"/>
			</clipPath>
			<g clip-path="url(#SVGID_00000098200056625486750930000014386648022515516824_)">
				<defs>
					<rect id="SVGID_00000106837019724457514940000012666058849448734635_" x="600" y="421.5" width="1800" height="1800"/>
				</defs>
				<clipPath id="SVGID_00000037689629124936897760000009166697535494649998_">
					<use xlink:href="#SVGID_00000106837019724457514940000012666058849448734635_"  overflow="visible"/>
				</clipPath>
			</g>
		</g>
	</g>
</g>
<g>
	<path fill="#FFFFFF" d="M616.4,2575.4v-171.7h66.7c14.1,0,25.7,2.4,34.8,7.2c9.2,4.8,16,11.2,20.5,19.3c4.5,8,6.7,16.9,6.7,26.7
		c0,9.2-2.2,17.7-6.5,25.8c-4.3,8-11.1,14.5-20.2,19.4c-9.2,4.9-20.9,7.4-35.3,7.4h-29.9v66H616.4z M653.2,2483h27.7
		c9.2,0,15.9-2.2,20.2-6.6c4.3-4.4,6.5-10.4,6.5-17.9c0-7.4-2.1-13.2-6.4-17.5c-4.3-4.3-11-6.5-20.4-6.5h-27.7V2483z M705,2575.4
		l-34.6-75.1h39.7l36.5,75.1H705z"/>
	<path fill="#FFFFFF" d="M772,2575.4l62.6-171.7h41.9l62.6,171.7h-38.8l-44.9-130.3l-44.9,130.3H772z M799.2,2537.9l9.6-28.5H899
		l9.3,28.5H799.2z"/>
	<path fill="#FFFFFF" d="M1030.5,2578.4c-12.3,0-23.3-2.1-33.2-6.3c-9.9-4.2-17.7-10.3-23.4-18.5c-5.7-8.2-8.8-18.2-9.3-30.2h39.2
		c0.2,4.7,1.3,8.9,3.6,12.5c2.2,3.6,5.3,6.4,9.2,8.5c3.9,2,8.5,3.1,13.7,3.1c4.6,0,8.5-0.7,11.9-2.1c3.4-1.4,6-3.4,8-6.1
		s2.9-6.1,2.9-10.2c0-4.2-1.1-7.9-3.3-10.9c-2.2-3-5.3-5.6-9.3-7.8c-4-2.2-8.6-4.2-13.9-6.1c-5.2-1.9-10.7-3.7-16.4-5.5
		c-13.6-4.4-24-10.4-31.3-17.9c-7.3-7.5-10.9-17.6-10.9-30.2c0-10.5,2.6-19.4,7.7-26.9c5.2-7.4,12.2-13.1,21.2-17
		c9-3.9,19.1-5.9,30.4-5.9c11.9,0,22.4,2,31.3,6c8.9,4,16,9.8,21.3,17.4c5.3,7.6,8.1,16.6,8.5,27.1h-39.7c0-3.6-1-6.9-2.9-9.8
		s-4.5-5.3-7.7-7.1c-3.2-1.8-6.8-2.7-10.9-2.7c-3.8-0.2-7.2,0.4-10.3,1.6c-3.1,1.2-5.6,3.1-7.4,5.6c-1.8,2.5-2.7,5.7-2.7,9.4
		c0,3.6,0.9,6.7,2.8,9.4c1.9,2.7,4.5,5,7.8,6.9c3.3,1.9,7.3,3.6,11.8,5.3c4.5,1.6,9.4,3.3,14.6,4.9c8.8,2.9,16.9,6.4,24.2,10.4
		c7.3,4,13.1,9.2,17.5,15.7c4.4,6.5,6.6,15,6.6,25.6c0,9.3-2.4,17.9-7.1,25.8c-4.7,7.8-11.7,14.1-20.9,18.9
		C1054.9,2576,1043.7,2578.4,1030.5,2578.4z"/>
	<path fill="#FFFFFF" d="M1168.4,2575.4v-142h-49.8v-29.7h136.6v29.7h-49.8v142H1168.4z"/>
	<path fill="#FFFFFF" d="M1287.6,2575.4v-171.7h36.8v171.7H1287.6z"/>
	<path fill="#FFFFFF" d="M1367,2575.4v-171.7h36.8v171.7H1367z M1399.2,2502.6v-29.7h81.4v29.7H1399.2z M1475,2575.4v-171.7h36.8
		v171.7H1475z"/>
	<path fill="#FFFFFF" d="M1542.9,2575.4l62.6-171.7h41.9l62.6,171.7h-38.8l-44.9-130.3l-44.9,130.3H1542.9z M1570.2,2537.9l9.6-28.5
		h90.3l9.3,28.5H1570.2z"/>
	<path fill="#FFFFFF" d="M1801.5,2578.4c-12.8,0-24.4-2.6-35-7.7s-18.9-12.9-25-23.2c-6.1-10.3-9.2-23.3-9.2-39v-104.7h36.8v105
		c0,7.7,1.3,14.2,3.8,19.6c2.5,5.4,6.3,9.4,11.3,12.1c5,2.7,11,4,18,4c7.2,0,13.3-1.3,18.3-4c5-2.7,8.8-6.7,11.4-12.1
		c2.6-5.4,3.9-11.9,3.9-19.6v-105h36.8v104.7c0,15.7-3.2,28.7-9.7,39c-6.5,10.3-15,18-25.8,23.2
		C1826.5,2575.8,1814.6,2578.4,1801.5,2578.4z"/>
	<path fill="#FFFFFF" d="M1913.6,2575.4v-171.7h36.8v65l59.4-65h45.1l-63,67.9l65.2,103.8h-44.9l-46.6-75.3l-15.2,16.4v58.9H1913.6z
		"/>
	<path fill="#FFFFFF" d="M2076.9,2575.4l62.6-171.7h41.9l62.6,171.7h-38.8l-44.9-130.3l-44.9,130.3H2076.9z M2104.2,2537.9l9.6-28.5
		h90.3l9.3,28.5H2104.2z"/>
	<path fill="#FFFFFF" d="M2297.2,2575.4v-142h-49.8v-29.7h136.6v29.7h-49.8v142H2297.2z"/>
</g>
<g>
</g>
<g>
</g>
<g>
</g>
<g>
</g>
<g>
</g>
<g>
</g>
</svg>
