<?xml version="1.0" encoding="utf-8"?>
<!-- Generator: Adobe Illustrator 25.4.1, SVG Export Plug-In . SVG Version: 6.00 Build 0)  -->
<svg version="1.1" id="Layer_1" xmlns="http://www.w3.org/2000/svg" xmlns:xlink="http://www.w3.org/1999/xlink" x="0px" y="0px"
	 viewBox="0 0 3000 3000" enable-background="new 0 0 3000 3000" xml:space="preserve">
<g>
	<path fill="#0D64B0" d="M1500,918.4c46.8-89.7,89.6-158.2,127.8-151.9c70.5,11.7,188.6,131.2,240.1,127.3
		c58.8-4.5,517.9-325.4,520.4-356.9c1.3-17.2-200.8,3.3-309.9,13.6c-145.9,13.7-255.6,29.6-348.1-61.7
		c-38.1-37.6-70.8-55.1-130.1-103.6c-48-39.3-16.9-242.3-11.5-378.1c0.2-3.9-3-7.2-7-7.2l-81.7,0l-81.7,0c-3.9,0-7.1,3.2-7,7.2
		c5.3,135.8,36.5,338.8-11.5,378.1c-59.2,48.5-91.9,66-130.1,103.6c-92.6,91.3-202.2,75.5-348.1,61.7
		c-109.1-10.3-311.2-30.8-309.9-13.6c2.5,31.5,461.5,352.4,520.4,356.9c51.5,3.9,169.6-115.6,240.1-127.3
		C1410.4,760.2,1453.2,828.7,1500,918.4L1500,918.4z"/>
	<path fill="#0D64B0" d="M1500,2081.3c-46.8,89.7-89.6,158.2-127.8,151.9c-70.5-11.7-188.6-131.2-240.1-127.3
		c-58.8,4.5-517.9,325.4-520.4,356.9c-1.3,17.2,200.8-3.3,309.9-13.6c145.9-13.7,255.6-29.6,348.1,61.7
		c38.1,37.6,70.8,55.1,130.1,103.6c48,39.3,16.9,242.3,11.5,378.1c-0.2,3.9,3,7.2,7,7.2h81.7h81.7c3.9,0,7.1-3.2,7-7.2
		c-5.3-135.8-36.5-338.8,11.5-378.1c59.2-48.5,91.9-66,130.1-103.6c92.6-91.3,202.2-75.5,348.1-61.7
		c109.1,10.3,311.2,30.8,309.9,13.6c-2.5-31.5-461.5-352.4-520.4-356.9c-51.5-3.9-169.6,115.6-240.1,127.3
		C1589.6,2239.5,1546.8,2171,1500,2081.3L1500,2081.3z"/>
	<path fill="#0D64B0" d="M2081.5,1499.8c89.7,46.8,158.2,89.6,151.9,127.8c-11.7,70.5-131.2,188.6-127.3,240.1
		c4.5,58.8,325.4,517.9,356.9,520.4c17.2,1.4-3.3-200.8-13.6-309.9c-13.7-145.9-29.6-255.6,61.7-348.1
		c37.6-38.1,55.1-70.8,103.6-130.1c39.3-48,242.3-16.9,378.1-11.5c3.9,0.2,7.2-3,7.2-7v-81.7v-81.7c0-3.9-3.2-7.1-7.2-7
		c-135.8,5.3-338.8,36.5-378.1-11.5c-48.5-59.2-66-91.9-103.6-130.1c-91.3-92.6-75.5-202.2-61.7-348.1
		c10.3-109.1,30.8-311.2,13.6-309.9c-31.5,2.5-352.4,461.5-356.9,520.4c-3.9,51.5,115.6,169.6,127.3,240.1
		C2239.7,1410.2,2171.2,1453,2081.5,1499.8L2081.5,1499.8z"/>
	<path fill="#0D64B0" d="M918.5,1499.8c-89.7,46.8-158.2,89.6-151.9,127.8c11.7,70.5,131.2,188.6,127.3,240.1
		c-4.5,58.8-325.4,517.9-356.9,520.4c-17.2,1.4,3.3-200.8,13.6-309.9c13.7-145.9,29.6-255.6-61.7-348.1
		c-37.6-38.1-55.1-70.8-103.6-130.1c-39.3-48-242.3-16.9-378.1-11.5c-3.9,0.2-7.2-3-7.2-7l0-81.7l0-81.7c0-3.9,3.2-7.1,7.2-7
		c135.8,5.3,338.8,36.5,378.1-11.5c48.5-59.2,66-91.9,103.6-130.1c91.3-92.6,75.5-202.2,61.7-348.1
		c-10.3-109.1-30.8-311.2-13.6-309.9c31.5,2.5,352.4,461.5,356.9,520.4c3.9,51.5-115.6,169.6-127.3,240.1
		C760.3,1410.2,828.8,1453,918.5,1499.8L918.5,1499.8z"/>
	<polyline fill="#F26922" points="1896.3,1103.5 1896.3,1896.1 1103.7,1896.1 	"/>
	<polyline fill="none" stroke="#000000" stroke-width="1.4285" stroke-miterlimit="10" points="1896.3,1102.8 1896.3,1896.1 
		1103,1896.1 	"/>
	<polyline fill="#FFFFFF" points="1103.7,1896.1 1103.7,1103.5 1896.3,1103.5 	"/>
	<polyline fill="none" stroke="#000000" stroke-width="1.4285" stroke-miterlimit="10" points="1103.7,1896.1 1103.7,1103.5 
		1896.3,1103.5 	"/>
	<line fill="none" stroke="#000000" stroke-width="1.4285" stroke-miterlimit="10" x1="1104" y1="1895.9" x2="1896.3" y2="1103.5"/>
</g>
<g>
</g>
<g>
</g>
<g>
</g>
<g>
</g>
<g>
</g>
<g>
</g>
</svg>
